<svg id="Laag_1" data-name="Laag 1" xmlns="http://www.w3.org/2000/svg" viewBox="0 0 500 500"><title>Enrise logo square black</title><path d="M93.48,215.38V284.3H162.4V215.38Zm54,53.81H132.52V245.26h-24.1V230.15h39v39Z"/><polygon points="188.68 284.57 188.68 277.84 193.81 277.84 193.81 222.02 188.68 222.02 188.68 215.28 222.57 215.28 222.57 233.98 213.93 233.98 213.93 222.02 202.44 222.02 202.44 245.18 215.83 245.18 215.83 251.92 202.44 251.92 202.44 277.84 214.03 277.84 214.03 265.59 222.66 265.59 222.66 284.57 188.68 284.57 188.68 284.57 188.68 284.57"/><polygon points="263.1 222.02 263.1 284.57 255.88 284.57 240.13 237.97 240.13 277.84 244.78 277.84 244.78 284.57 227.31 284.57 227.31 277.84 232.44 277.84 232.44 222.02 227.31 222.02 227.31 215.28 240.41 215.28 255.41 259.8 255.41 222.02 250.76 222.02 250.76 215.28 268.22 215.28 268.22 222.02 263.1 222.02 263.1 222.02 263.1 222.02"/><path d="M305.18,284.58c-4.55,0-7.4-1.71-7.4-8.26v-16.9c0-3.89-1.52-6.45-6.55-6.45h-5.32v24.87h4.94v6.74h-18.7v-6.74h5.13V222h-5.13v-6.74h20c9.77,0,14.14,4,14.14,12.82v12c0,5.31-2,8.45-7.31,9.59,4.84,1.13,7.41,4.08,7.41,9.3v16.23c0,2.09.47,2.66,2.46,2.66H311v6.74Zm-7.5-56.1c0-3.89-1.52-6.46-6.55-6.46h-5.22v24.21h5.22c4.94,0,6.55-2.38,6.55-6.46V228.48Z"/><polygon points="314.81 284.57 314.81 277.84 319.94 277.84 319.94 222.02 314.81 222.02 314.81 215.28 333.7 215.28 333.7 222.02 328.58 222.02 328.58 277.84 333.7 277.84 333.7 284.57 314.81 284.57 314.81 284.57 314.81 284.57"/><path d="M353.21,285.43c-9.21,0-14.62-2.66-14.62-11.86v-8h8.64v7.88c0,3.8,1.42,5.22,6,5.22,4.17,0,6-1,6-5.22V257.9c0-3.13-.48-3.7-3.8-4.36l-8.26-1.24c-5.88-.76-8.35-3-8.35-10V226.29c0-8.06,4.37-11.86,14.43-11.86,8.92,0,14.43,3.13,14.43,11.86V234H359v-7.59c0-3.7-1.52-5.22-5.79-5.22-3.7,0-5.79,1.14-5.79,5.22v13.86c0,3.32.66,3.8,3.79,4.37l8.26,1.23c5.79.76,8.35,3.13,8.35,10v17.75c0,8.35-4.74,11.86-14.61,11.86Z"/><polygon points="372.54 284.57 372.54 277.84 377.67 277.84 377.67 222.02 372.54 222.02 372.54 215.28 406.43 215.28 406.43 233.98 397.79 233.98 397.79 222.02 386.3 222.02 386.3 245.18 399.69 245.18 399.69 251.92 386.3 251.92 386.3 277.84 397.88 277.84 397.88 265.59 406.52 265.59 406.52 284.57 372.54 284.57 372.54 284.57 372.54 284.57"/></svg>